<mxfile host="app.diagrams.net" modified="2021-10-09T01:29:38.294Z" agent="5.0 (Windows NT 10.0; Win64; x64) AppleWebKit/537.36 (KHTML, like Gecko) Chrome/94.0.4606.71 Safari/537.36" etag="10mim6TPZPtLXzHB_jyq" version="15.4.1" type="github">
  <diagram id="0iKbev9w_fv1EcxaYThd" name="Page-1">
    <mxGraphModel dx="1055" dy="905" grid="1" gridSize="10" guides="1" tooltips="1" connect="1" arrows="1" fold="1" page="1" pageScale="1" pageWidth="827" pageHeight="1169" math="0" shadow="0">
      <root>
        <mxCell id="0" />
        <mxCell id="1" parent="0" />
        <mxCell id="4ErdllIeTKA4thGLRw-R-1" value="" style="ellipse;whiteSpace=wrap;html=1;aspect=fixed;" vertex="1" parent="1">
          <mxGeometry x="360" y="170" width="40" height="40" as="geometry" />
        </mxCell>
        <mxCell id="4ErdllIeTKA4thGLRw-R-2" value="" style="ellipse;whiteSpace=wrap;html=1;aspect=fixed;" vertex="1" parent="1">
          <mxGeometry x="600" y="280" width="40" height="40" as="geometry" />
        </mxCell>
        <mxCell id="4ErdllIeTKA4thGLRw-R-3" value="" style="ellipse;whiteSpace=wrap;html=1;aspect=fixed;" vertex="1" parent="1">
          <mxGeometry x="450" y="280" width="40" height="40" as="geometry" />
        </mxCell>
        <mxCell id="4ErdllIeTKA4thGLRw-R-4" value="" style="ellipse;whiteSpace=wrap;html=1;aspect=fixed;" vertex="1" parent="1">
          <mxGeometry x="300" y="280" width="40" height="40" as="geometry" />
        </mxCell>
        <mxCell id="4ErdllIeTKA4thGLRw-R-5" value="" style="ellipse;whiteSpace=wrap;html=1;aspect=fixed;" vertex="1" parent="1">
          <mxGeometry x="150" y="280" width="40" height="40" as="geometry" />
        </mxCell>
        <mxCell id="4ErdllIeTKA4thGLRw-R-6" value="" style="ellipse;whiteSpace=wrap;html=1;aspect=fixed;" vertex="1" parent="1">
          <mxGeometry x="540" y="440" width="40" height="40" as="geometry" />
        </mxCell>
        <mxCell id="4ErdllIeTKA4thGLRw-R-7" value="" style="ellipse;whiteSpace=wrap;html=1;aspect=fixed;" vertex="1" parent="1">
          <mxGeometry x="480" y="440" width="40" height="40" as="geometry" />
        </mxCell>
        <mxCell id="4ErdllIeTKA4thGLRw-R-8" value="" style="ellipse;whiteSpace=wrap;html=1;aspect=fixed;" vertex="1" parent="1">
          <mxGeometry x="620" y="440" width="40" height="40" as="geometry" />
        </mxCell>
        <mxCell id="4ErdllIeTKA4thGLRw-R-9" value="" style="ellipse;whiteSpace=wrap;html=1;aspect=fixed;" vertex="1" parent="1">
          <mxGeometry x="680" y="440" width="40" height="40" as="geometry" />
        </mxCell>
        <mxCell id="4ErdllIeTKA4thGLRw-R-10" value="" style="ellipse;whiteSpace=wrap;html=1;aspect=fixed;" vertex="1" parent="1">
          <mxGeometry x="750" y="440" width="40" height="40" as="geometry" />
        </mxCell>
        <mxCell id="4ErdllIeTKA4thGLRw-R-11" value="" style="ellipse;whiteSpace=wrap;html=1;aspect=fixed;" vertex="1" parent="1">
          <mxGeometry x="420" y="440" width="40" height="40" as="geometry" />
        </mxCell>
        <mxCell id="4ErdllIeTKA4thGLRw-R-12" value="" style="ellipse;whiteSpace=wrap;html=1;aspect=fixed;" vertex="1" parent="1">
          <mxGeometry x="350" y="440" width="40" height="40" as="geometry" />
        </mxCell>
        <mxCell id="4ErdllIeTKA4thGLRw-R-13" value="" style="ellipse;whiteSpace=wrap;html=1;aspect=fixed;" vertex="1" parent="1">
          <mxGeometry x="290" y="440" width="40" height="40" as="geometry" />
        </mxCell>
        <mxCell id="4ErdllIeTKA4thGLRw-R-14" value="" style="ellipse;whiteSpace=wrap;html=1;aspect=fixed;" vertex="1" parent="1">
          <mxGeometry x="230" y="440" width="40" height="40" as="geometry" />
        </mxCell>
        <mxCell id="4ErdllIeTKA4thGLRw-R-15" value="" style="ellipse;whiteSpace=wrap;html=1;aspect=fixed;" vertex="1" parent="1">
          <mxGeometry x="160" y="440" width="40" height="40" as="geometry" />
        </mxCell>
        <mxCell id="4ErdllIeTKA4thGLRw-R-16" value="" style="ellipse;whiteSpace=wrap;html=1;aspect=fixed;" vertex="1" parent="1">
          <mxGeometry x="100" y="440" width="40" height="40" as="geometry" />
        </mxCell>
        <mxCell id="4ErdllIeTKA4thGLRw-R-17" value="" style="ellipse;whiteSpace=wrap;html=1;aspect=fixed;" vertex="1" parent="1">
          <mxGeometry x="40" y="440" width="40" height="40" as="geometry" />
        </mxCell>
        <mxCell id="4ErdllIeTKA4thGLRw-R-21" value="" style="endArrow=none;html=1;exitX=0.7;exitY=0.05;exitDx=0;exitDy=0;entryX=0;entryY=0.5;entryDx=0;entryDy=0;exitPerimeter=0;" edge="1" parent="1" source="4ErdllIeTKA4thGLRw-R-5" target="4ErdllIeTKA4thGLRw-R-1">
          <mxGeometry width="50" height="50" relative="1" as="geometry">
            <mxPoint x="-190" y="120" as="sourcePoint" />
            <mxPoint x="-230" y="80" as="targetPoint" />
          </mxGeometry>
        </mxCell>
        <mxCell id="4ErdllIeTKA4thGLRw-R-22" value="" style="endArrow=none;html=1;exitX=0.5;exitY=0;exitDx=0;exitDy=0;entryX=0;entryY=1;entryDx=0;entryDy=0;" edge="1" parent="1" source="4ErdllIeTKA4thGLRw-R-4" target="4ErdllIeTKA4thGLRw-R-1">
          <mxGeometry width="50" height="50" relative="1" as="geometry">
            <mxPoint x="188" y="292" as="sourcePoint" />
            <mxPoint x="370" y="200" as="targetPoint" />
          </mxGeometry>
        </mxCell>
        <mxCell id="4ErdllIeTKA4thGLRw-R-23" value="" style="endArrow=none;html=1;exitX=0.25;exitY=0;exitDx=0;exitDy=0;entryX=1;entryY=1;entryDx=0;entryDy=0;exitPerimeter=0;" edge="1" parent="1" source="4ErdllIeTKA4thGLRw-R-3" target="4ErdllIeTKA4thGLRw-R-1">
          <mxGeometry width="50" height="50" relative="1" as="geometry">
            <mxPoint x="198" y="302" as="sourcePoint" />
            <mxPoint x="380" y="210" as="targetPoint" />
          </mxGeometry>
        </mxCell>
        <mxCell id="4ErdllIeTKA4thGLRw-R-24" value="" style="endArrow=none;html=1;exitX=0.25;exitY=0;exitDx=0;exitDy=0;entryX=1;entryY=0.5;entryDx=0;entryDy=0;exitPerimeter=0;" edge="1" parent="1" source="4ErdllIeTKA4thGLRw-R-2" target="4ErdllIeTKA4thGLRw-R-1">
          <mxGeometry width="50" height="50" relative="1" as="geometry">
            <mxPoint x="208" y="312" as="sourcePoint" />
            <mxPoint x="390" y="220" as="targetPoint" />
          </mxGeometry>
        </mxCell>
        <mxCell id="4ErdllIeTKA4thGLRw-R-25" value="" style="endArrow=none;html=1;exitX=0.775;exitY=-0.025;exitDx=0;exitDy=0;entryX=0;entryY=1;entryDx=0;entryDy=0;exitPerimeter=0;" edge="1" parent="1" source="4ErdllIeTKA4thGLRw-R-17" target="4ErdllIeTKA4thGLRw-R-5">
          <mxGeometry width="50" height="50" relative="1" as="geometry">
            <mxPoint x="218" y="322" as="sourcePoint" />
            <mxPoint x="400" y="230" as="targetPoint" />
          </mxGeometry>
        </mxCell>
        <mxCell id="4ErdllIeTKA4thGLRw-R-26" value="" style="endArrow=none;html=1;exitX=0.5;exitY=0;exitDx=0;exitDy=0;entryX=0.396;entryY=1;entryDx=0;entryDy=0;entryPerimeter=0;startArrow=none;" edge="1" parent="1" source="4ErdllIeTKA4thGLRw-R-39" target="4ErdllIeTKA4thGLRw-R-5">
          <mxGeometry width="50" height="50" relative="1" as="geometry">
            <mxPoint x="81" y="449" as="sourcePoint" />
            <mxPoint x="165.85786437626894" y="324.14213562373106" as="targetPoint" />
          </mxGeometry>
        </mxCell>
        <mxCell id="4ErdllIeTKA4thGLRw-R-27" value="" style="endArrow=none;html=1;entryX=1;entryY=1;entryDx=0;entryDy=0;" edge="1" parent="1" source="4ErdllIeTKA4thGLRw-R-15" target="4ErdllIeTKA4thGLRw-R-5">
          <mxGeometry width="50" height="50" relative="1" as="geometry">
            <mxPoint x="91" y="459" as="sourcePoint" />
            <mxPoint x="175.85786437626894" y="334.14213562373106" as="targetPoint" />
          </mxGeometry>
        </mxCell>
        <mxCell id="4ErdllIeTKA4thGLRw-R-28" value="" style="endArrow=none;html=1;exitX=0.35;exitY=0.075;exitDx=0;exitDy=0;entryX=1;entryY=1;entryDx=0;entryDy=0;exitPerimeter=0;" edge="1" parent="1" source="4ErdllIeTKA4thGLRw-R-12" target="4ErdllIeTKA4thGLRw-R-4">
          <mxGeometry width="50" height="50" relative="1" as="geometry">
            <mxPoint x="255.14" y="434.86" as="sourcePoint" />
            <mxPoint x="339.9978643762689" y="310.0021356237311" as="targetPoint" />
          </mxGeometry>
        </mxCell>
        <mxCell id="4ErdllIeTKA4thGLRw-R-29" value="" style="endArrow=none;html=1;exitX=0.5;exitY=0;exitDx=0;exitDy=0;" edge="1" parent="1" source="4ErdllIeTKA4thGLRw-R-13">
          <mxGeometry width="50" height="50" relative="1" as="geometry">
            <mxPoint x="240" y="444.86" as="sourcePoint" />
            <mxPoint x="320" y="320" as="targetPoint" />
          </mxGeometry>
        </mxCell>
        <mxCell id="4ErdllIeTKA4thGLRw-R-30" value="" style="endArrow=none;html=1;exitX=0.5;exitY=0;exitDx=0;exitDy=0;entryX=0;entryY=1;entryDx=0;entryDy=0;" edge="1" parent="1" source="4ErdllIeTKA4thGLRw-R-14">
          <mxGeometry width="50" height="50" relative="1" as="geometry">
            <mxPoint x="220" y="440" as="sourcePoint" />
            <mxPoint x="304.85786437626894" y="315.14213562373106" as="targetPoint" />
          </mxGeometry>
        </mxCell>
        <mxCell id="4ErdllIeTKA4thGLRw-R-31" value="" style="endArrow=none;html=1;exitX=0.5;exitY=0;exitDx=0;exitDy=0;entryX=1;entryY=1;entryDx=0;entryDy=0;" edge="1" parent="1" source="4ErdllIeTKA4thGLRw-R-6" target="4ErdllIeTKA4thGLRw-R-3">
          <mxGeometry width="50" height="50" relative="1" as="geometry">
            <mxPoint x="405.14" y="434.86" as="sourcePoint" />
            <mxPoint x="489.9978643762689" y="310.0021356237311" as="targetPoint" />
          </mxGeometry>
        </mxCell>
        <mxCell id="4ErdllIeTKA4thGLRw-R-32" value="" style="endArrow=none;html=1;exitX=0.5;exitY=0;exitDx=0;exitDy=0;exitPerimeter=0;entryX=0.675;entryY=1.025;entryDx=0;entryDy=0;entryPerimeter=0;" edge="1" parent="1" source="4ErdllIeTKA4thGLRw-R-7" target="4ErdllIeTKA4thGLRw-R-3">
          <mxGeometry width="50" height="50" relative="1" as="geometry">
            <mxPoint x="400" y="440" as="sourcePoint" />
            <mxPoint x="480" y="320" as="targetPoint" />
          </mxGeometry>
        </mxCell>
        <mxCell id="4ErdllIeTKA4thGLRw-R-33" value="" style="endArrow=none;html=1;exitX=0.5;exitY=0;exitDx=0;exitDy=0;entryX=0;entryY=1;entryDx=0;entryDy=0;" edge="1" parent="1" source="4ErdllIeTKA4thGLRw-R-11">
          <mxGeometry width="50" height="50" relative="1" as="geometry">
            <mxPoint x="380" y="444.86" as="sourcePoint" />
            <mxPoint x="464.85786437626894" y="320.0021356237311" as="targetPoint" />
          </mxGeometry>
        </mxCell>
        <mxCell id="4ErdllIeTKA4thGLRw-R-34" value="" style="endArrow=none;html=1;exitX=0.35;exitY=-0.025;exitDx=0;exitDy=0;entryX=1;entryY=0.75;entryDx=0;entryDy=0;exitPerimeter=0;entryPerimeter=0;" edge="1" parent="1" source="4ErdllIeTKA4thGLRw-R-10" target="4ErdllIeTKA4thGLRw-R-2">
          <mxGeometry width="50" height="50" relative="1" as="geometry">
            <mxPoint x="560" y="424.86" as="sourcePoint" />
            <mxPoint x="644.8578643762689" y="300.0021356237311" as="targetPoint" />
          </mxGeometry>
        </mxCell>
        <mxCell id="4ErdllIeTKA4thGLRw-R-35" value="" style="endArrow=none;html=1;exitX=0.325;exitY=0.075;exitDx=0;exitDy=0;entryX=1;entryY=1;entryDx=0;entryDy=0;exitPerimeter=0;" edge="1" parent="1" source="4ErdllIeTKA4thGLRw-R-9" target="4ErdllIeTKA4thGLRw-R-2">
          <mxGeometry width="50" height="50" relative="1" as="geometry">
            <mxPoint x="555.14" y="434.86" as="sourcePoint" />
            <mxPoint x="639.9978643762689" y="310.0021356237311" as="targetPoint" />
          </mxGeometry>
        </mxCell>
        <mxCell id="4ErdllIeTKA4thGLRw-R-36" value="" style="endArrow=none;html=1;exitX=0.325;exitY=0.025;exitDx=0;exitDy=0;entryX=0.5;entryY=1;entryDx=0;entryDy=0;exitPerimeter=0;" edge="1" parent="1" source="4ErdllIeTKA4thGLRw-R-8" target="4ErdllIeTKA4thGLRw-R-2">
          <mxGeometry width="50" height="50" relative="1" as="geometry">
            <mxPoint x="181" y="549" as="sourcePoint" />
            <mxPoint x="265.85786437626894" y="424.14213562373106" as="targetPoint" />
          </mxGeometry>
        </mxCell>
        <mxCell id="4ErdllIeTKA4thGLRw-R-37" value="&lt;font size=&quot;1&quot;&gt;&lt;b style=&quot;font-size: 17px&quot;&gt;(e,j,x)&lt;/b&gt;&lt;/font&gt;" style="text;html=1;align=center;verticalAlign=middle;resizable=0;points=[];autosize=1;strokeColor=none;fillColor=none;" vertex="1" parent="1">
          <mxGeometry x="210" y="220" width="60" height="20" as="geometry" />
        </mxCell>
        <mxCell id="4ErdllIeTKA4thGLRw-R-38" value="&lt;font size=&quot;1&quot;&gt;&lt;b style=&quot;font-size: 17px&quot;&gt;(G,x,j)&lt;/b&gt;&lt;/font&gt;" style="text;html=1;align=center;verticalAlign=middle;resizable=0;points=[];autosize=1;strokeColor=none;fillColor=none;" vertex="1" parent="1">
          <mxGeometry x="160" y="360" width="60" height="20" as="geometry" />
        </mxCell>
        <mxCell id="4ErdllIeTKA4thGLRw-R-40" value="&lt;font size=&quot;1&quot;&gt;&lt;b style=&quot;font-size: 17px&quot;&gt;(h,i,j)&lt;/b&gt;&lt;/font&gt;" style="text;html=1;align=center;verticalAlign=middle;resizable=0;points=[];autosize=1;strokeColor=none;fillColor=none;" vertex="1" parent="1">
          <mxGeometry x="80" y="330" width="60" height="20" as="geometry" />
        </mxCell>
        <mxCell id="4ErdllIeTKA4thGLRw-R-39" value="&lt;font size=&quot;1&quot;&gt;&lt;b style=&quot;font-size: 17px&quot;&gt;(l,k,j)&lt;/b&gt;&lt;/font&gt;" style="text;html=1;align=center;verticalAlign=middle;resizable=0;points=[];autosize=1;strokeColor=none;fillColor=none;" vertex="1" parent="1">
          <mxGeometry x="105" y="410" width="50" height="20" as="geometry" />
        </mxCell>
        <mxCell id="4ErdllIeTKA4thGLRw-R-41" value="" style="endArrow=none;html=1;exitX=0.5;exitY=0;exitDx=0;exitDy=0;entryX=0.396;entryY=1;entryDx=0;entryDy=0;entryPerimeter=0;" edge="1" parent="1" source="4ErdllIeTKA4thGLRw-R-16" target="4ErdllIeTKA4thGLRw-R-39">
          <mxGeometry width="50" height="50" relative="1" as="geometry">
            <mxPoint x="120" y="440" as="sourcePoint" />
            <mxPoint x="165.83999999999992" y="320" as="targetPoint" />
          </mxGeometry>
        </mxCell>
        <mxCell id="4ErdllIeTKA4thGLRw-R-42" value="&lt;font size=&quot;1&quot;&gt;&lt;b style=&quot;font-size: 17px&quot;&gt;(f,k,A)&lt;/b&gt;&lt;/font&gt;" style="text;html=1;align=center;verticalAlign=middle;resizable=0;points=[];autosize=1;strokeColor=none;fillColor=none;" vertex="1" parent="1">
          <mxGeometry x="240" y="350" width="60" height="20" as="geometry" />
        </mxCell>
        <mxCell id="4ErdllIeTKA4thGLRw-R-43" value="&lt;font size=&quot;1&quot;&gt;&lt;b style=&quot;font-size: 17px&quot;&gt;(E,F,G)&lt;/b&gt;&lt;/font&gt;" style="text;html=1;align=center;verticalAlign=middle;resizable=0;points=[];autosize=1;strokeColor=none;fillColor=none;" vertex="1" parent="1">
          <mxGeometry x="409" y="360" width="70" height="20" as="geometry" />
        </mxCell>
        <mxCell id="4ErdllIeTKA4thGLRw-R-44" value="&lt;font size=&quot;1&quot;&gt;&lt;b style=&quot;font-size: 17px&quot;&gt;(I,H,G)&lt;/b&gt;&lt;/font&gt;" style="text;html=1;align=center;verticalAlign=middle;resizable=0;points=[];autosize=1;strokeColor=none;fillColor=none;" vertex="1" parent="1">
          <mxGeometry x="455" y="410" width="70" height="20" as="geometry" />
        </mxCell>
        <mxCell id="4ErdllIeTKA4thGLRw-R-45" value="&lt;font size=&quot;1&quot;&gt;&lt;b style=&quot;font-size: 17px&quot;&gt;(j,x,G)&lt;/b&gt;&lt;/font&gt;" style="text;html=1;align=center;verticalAlign=middle;resizable=0;points=[];autosize=1;strokeColor=none;fillColor=none;" vertex="1" parent="1">
          <mxGeometry x="520" y="370" width="60" height="20" as="geometry" />
        </mxCell>
        <mxCell id="4ErdllIeTKA4thGLRw-R-46" value="&lt;font size=&quot;1&quot;&gt;&lt;b style=&quot;font-size: 17px&quot;&gt;(A,x,p)&lt;/b&gt;&lt;/font&gt;" style="text;html=1;align=center;verticalAlign=middle;resizable=0;points=[];autosize=1;strokeColor=none;fillColor=none;" vertex="1" parent="1">
          <mxGeometry x="655" y="410" width="70" height="20" as="geometry" />
        </mxCell>
        <mxCell id="4ErdllIeTKA4thGLRw-R-47" value="&lt;font size=&quot;1&quot;&gt;&lt;b style=&quot;font-size: 17px&quot;&gt;(B,A,x)&lt;/b&gt;&lt;/font&gt;" style="text;html=1;align=center;verticalAlign=middle;resizable=0;points=[];autosize=1;strokeColor=none;fillColor=none;" vertex="1" parent="1">
          <mxGeometry x="315" y="260" width="70" height="20" as="geometry" />
        </mxCell>
        <mxCell id="4ErdllIeTKA4thGLRw-R-48" value="&lt;font size=&quot;1&quot;&gt;&lt;b style=&quot;font-size: 17px&quot;&gt;(L,G,x)&lt;/b&gt;&lt;/font&gt;" style="text;html=1;align=center;verticalAlign=middle;resizable=0;points=[];autosize=1;strokeColor=none;fillColor=none;" vertex="1" parent="1">
          <mxGeometry x="425" y="250" width="70" height="20" as="geometry" />
        </mxCell>
        <mxCell id="4ErdllIeTKA4thGLRw-R-49" value="&lt;font size=&quot;1&quot;&gt;&lt;b style=&quot;font-size: 17px&quot;&gt;(o,p,x)&lt;/b&gt;&lt;/font&gt;" style="text;html=1;align=center;verticalAlign=middle;resizable=0;points=[];autosize=1;strokeColor=none;fillColor=none;" vertex="1" parent="1">
          <mxGeometry x="505" y="210" width="70" height="20" as="geometry" />
        </mxCell>
        <mxCell id="4ErdllIeTKA4thGLRw-R-50" value="&lt;font size=&quot;1&quot;&gt;&lt;b style=&quot;font-size: 17px&quot;&gt;(d,i,p)&lt;/b&gt;&lt;/font&gt;" style="text;html=1;align=center;verticalAlign=middle;resizable=0;points=[];autosize=1;strokeColor=none;fillColor=none;" vertex="1" parent="1">
          <mxGeometry x="690" y="360" width="60" height="20" as="geometry" />
        </mxCell>
        <mxCell id="4ErdllIeTKA4thGLRw-R-54" value="&lt;font size=&quot;1&quot;&gt;&lt;b style=&quot;font-size: 17px&quot;&gt;(p,x,A)&lt;/b&gt;&lt;/font&gt;" style="text;html=1;align=center;verticalAlign=middle;resizable=0;points=[];autosize=1;strokeColor=none;fillColor=none;" vertex="1" parent="1">
          <mxGeometry x="335" y="350" width="70" height="20" as="geometry" />
        </mxCell>
        <mxCell id="4ErdllIeTKA4thGLRw-R-55" value="&lt;font size=&quot;1&quot;&gt;&lt;b style=&quot;font-size: 17px&quot;&gt;(M,H,A)&lt;/b&gt;&lt;/font&gt;" style="text;html=1;align=center;verticalAlign=middle;resizable=0;points=[];autosize=1;strokeColor=none;fillColor=none;" vertex="1" parent="1">
          <mxGeometry x="285" y="410" width="70" height="20" as="geometry" />
        </mxCell>
        <mxCell id="4ErdllIeTKA4thGLRw-R-56" value="&lt;font size=&quot;1&quot;&gt;&lt;b style=&quot;font-size: 17px&quot;&gt;(K,F,p)&lt;/b&gt;&lt;/font&gt;" style="text;html=1;align=center;verticalAlign=middle;resizable=0;points=[];autosize=1;strokeColor=none;fillColor=none;" vertex="1" parent="1">
          <mxGeometry x="570" y="340" width="70" height="20" as="geometry" />
        </mxCell>
      </root>
    </mxGraphModel>
  </diagram>
</mxfile>
